<svg width="459" height="281" viewBox="0 0 459 281" fill="none" xmlns="http://www.w3.org/2000/svg">
<g style="mix-blend-mode:difference">
<path d="M410.24 4.23358C411.091 3.44409 412.018 4.87203 410.933 5.32513C274.125 97.2012 137.227 188.94 0.446229 280.85C0.336387 280.493 0.109842 279.779 0 279.422C27.9617 260.921 55.6762 242.028 83.6036 223.465C65.6787 193.869 47.6646 164.328 29.6848 134.774C29.575 173.047 29.623 211.334 29.6574 249.607C19.8196 249.621 9.98877 249.545 0.151034 249.648C0.0274614 172.752 0.137302 95.8556 0.0961114 18.9593C9.95444 18.9044 19.8128 18.8769 29.6711 18.973C29.5819 47.5388 29.6574 76.1046 29.6299 104.67C29.6986 110.012 29.472 115.366 29.7535 120.701C51.5709 86.725 73.7247 52.9623 95.5008 18.9661C107.22 18.9318 118.945 18.7945 130.664 19.0348C114.867 41.4769 99.5101 64.2348 83.8301 86.7593C74.9329 99.8374 65.816 112.778 56.9669 125.891C74.2121 152.816 91.1758 179.926 108.394 206.865C126.154 194.796 144.003 182.83 161.894 170.96C161.935 120.302 161.976 69.6446 161.873 18.9867C171.944 18.8494 182.015 18.9387 192.086 18.9387C192.169 62.8206 192.059 106.696 192.141 150.571C208.693 139.463 225.259 128.383 241.797 117.241C241.776 84.4801 241.831 51.7128 241.769 18.9456C251.847 18.8975 261.932 18.8632 272.01 18.9661C272.038 44.9987 271.845 71.0451 272.106 97.0708C278.985 92.1004 286.18 87.5831 293.189 82.7913C316.38 67.2143 339.563 51.6236 362.788 36.0878C362.76 30.376 362.774 24.6642 362.795 18.9456C371.266 18.8975 379.738 18.9112 388.216 18.9318C395.617 14.1194 402.88 9.10096 410.24 4.23358Z" fill="white"/>
<path d="M363.014 48.397C373.051 41.5937 383.135 34.8384 393.227 28.1174C393.2 89.2583 393.248 150.392 393.207 211.533C414.839 211.485 436.464 211.499 458.096 211.519C458.116 220.925 458.068 230.33 458.116 239.735C426.413 239.783 394.71 239.763 363 239.742C363.034 175.965 363.021 112.181 363.014 48.397Z" fill="white"/>
<path d="M241 129.447C251.03 122.637 261.177 116.005 271.165 109.133C271.378 143.266 271.186 177.413 271.262 211.554C292.907 211.471 314.553 211.512 336.192 211.526C336.185 220.938 336.226 230.35 336.185 239.763C304.475 239.763 272.758 239.776 241.048 239.756C241.069 202.986 241.158 166.21 241 129.447Z" fill="white"/>
<path d="M163.139 182.727C173.183 176.075 183.172 169.319 193.174 162.598C193.291 188.315 193.133 214.032 193.256 239.749C183.185 239.824 173.121 239.769 163.057 239.776C163.057 220.76 162.885 201.73 163.139 182.727Z" fill="white"/>
<path d="M109.611 213.366C110.181 212.961 110.812 212.707 111.512 212.604C117.059 221.721 122.792 230.742 128.661 239.66C116.647 239.879 104.62 239.749 92.5989 239.722C90.5325 236.145 88.3082 232.657 86.2144 229.101C94.02 223.863 101.881 218.707 109.611 213.366Z" fill="white"/>
</g>
</svg>
