<svg width="443" height="277" viewBox="0 0 443 277" fill="none" xmlns="http://www.w3.org/2000/svg">
<g style="mix-blend-mode:difference">
<path d="M410.24 0.233576C411.091 -0.555914 412.018 0.872031 410.933 1.32513C274.125 93.2012 137.227 184.94 0.446229 276.85C0.336387 276.493 0.109842 275.779 0 275.422C27.9617 256.921 55.6762 238.028 83.6036 219.465C65.6787 189.869 47.6646 160.328 29.6848 130.774C29.575 169.047 29.623 207.334 29.6574 245.607C19.8196 245.621 9.98877 245.545 0.151034 245.648C0.0274614 168.752 0.137302 91.8556 0.0961114 14.9593C9.95444 14.9044 19.8128 14.8769 29.6711 14.973C29.5819 43.5388 29.6574 72.1046 29.6299 100.67C29.6986 106.012 29.472 111.366 29.7535 116.701C51.5709 82.725 73.7247 48.9623 95.5008 14.9661C107.22 14.9318 118.945 14.7945 130.664 15.0348C114.867 37.4769 99.5101 60.2348 83.8301 82.7593C74.9329 95.8374 65.816 108.778 56.9669 121.891C74.2121 148.816 91.1758 175.926 108.394 202.865C126.154 190.796 144.003 178.83 161.894 166.96C161.935 116.302 161.976 65.6446 161.873 14.9867C171.944 14.8494 182.015 14.9387 192.086 14.9387C192.169 58.8206 192.059 102.696 192.141 146.571C208.693 135.463 225.259 124.383 241.797 113.241C241.776 80.4801 241.831 47.7128 241.769 14.9456C251.847 14.8975 261.932 14.8632 272.01 14.9661C272.038 40.9987 271.845 67.0451 272.106 93.0708C278.985 88.1004 286.18 83.5831 293.189 78.7913C316.38 63.2143 339.563 47.6236 362.788 32.0878C362.76 26.376 362.774 20.6642 362.795 14.9456C371.266 14.8975 379.738 14.9112 388.216 14.9318C395.617 10.1194 402.88 5.10096 410.24 0.233576Z" fill="white"/>
<path d="M347.897 50.397C357.934 43.5937 368.019 36.8384 378.11 30.1174C378.083 91.2583 378.131 152.392 378.09 213.533C399.722 213.485 421.347 213.499 442.979 213.519C443 222.925 442.952 232.33 443 241.735C411.297 241.783 379.593 241.763 347.883 241.742C347.918 177.965 347.904 114.181 347.897 50.397Z" fill="white"/>
<path d="M226.838 131.447C236.868 124.637 247.015 118.005 257.003 111.133C257.216 145.266 257.024 179.413 257.099 213.554C278.745 213.471 300.391 213.512 322.03 213.526C322.023 222.938 322.064 232.35 322.023 241.763C290.313 241.763 258.596 241.776 226.886 241.756C226.907 204.986 226.996 168.21 226.838 131.447Z" fill="white"/>
<path d="M147.223 184.727C157.267 178.075 167.256 171.319 177.258 164.598C177.375 190.315 177.217 216.032 177.34 241.749C167.269 241.824 157.205 241.769 147.141 241.776C147.141 222.76 146.969 203.73 147.223 184.727Z" fill="white"/>
<path d="M101.611 215.366C102.181 214.961 102.812 214.707 103.512 214.604C109.059 223.721 114.792 232.742 120.661 241.66C108.647 241.879 96.6198 241.749 84.5989 241.722C82.5325 238.145 80.3082 234.657 78.2144 231.101C86.02 225.863 93.8806 220.707 101.611 215.366Z" fill="white"/>
</g>
</svg>
