<svg width="20" height="21" viewBox="0 0 20 21" fill="none" xmlns="http://www.w3.org/2000/svg">
    <g clip-path="url(#clip0_3851_6593)">
        <path fill-rule="evenodd" clip-rule="evenodd" d="M8.43755 20.255V13.2677H5.89783V10.3764H8.43755V8.17277C8.43755 5.66539 9.93102 4.28162 12.2148 4.28162C13.3089 4.28162 14.4536 4.47709 14.4536 4.47709V6.93806H13.1922C11.949 6.93806 11.5623 7.71011 11.5623 8.50043V10.3764H14.3355L13.8925 13.2677H11.5623V20.2551C16.3431 19.505 20 15.3678 20 10.3764C20 4.85354 15.5228 0.376389 10 0.376389C4.47715 0.376389 0 4.85354 0 10.3764C0 15.3677 3.65686 19.5049 8.43755 20.255Z" fill="white"/>
    </g>
    <defs>
        <clipPath id="clip0_3851_6593">
            <rect width="20" height="20" fill="white" transform="translate(0 0.375)"/>
        </clipPath>
    </defs>
</svg>
