<svg width="20" height="21" viewBox="0 0 20 21" fill="none" xmlns="http://www.w3.org/2000/svg">
    <g clip-path="url(#clip0_3851_6590)">
        <path d="M9.99998 2.17684C12.6701 2.17684 12.9864 2.187 14.0408 2.23511C15.0158 2.27961 15.5453 2.44252 15.8977 2.57943C16.3644 2.76083 16.6976 2.97757 17.0475 3.32748C17.3974 3.67739 17.6142 4.01055 17.7955 4.47729C17.9325 4.8297 18.0954 5.35919 18.1399 6.33414C18.188 7.38864 18.1982 7.70489 18.1982 10.375C18.1982 13.0451 18.188 13.3614 18.1399 14.4159C18.0954 15.3908 17.9325 15.9203 17.7955 16.2728C17.6142 16.7395 17.3974 17.0726 17.0475 17.4226C16.6976 17.7725 16.3644 17.9892 15.8977 18.1706C15.5453 18.3075 15.0158 18.4704 14.0408 18.5149C12.9865 18.563 12.6703 18.5732 9.99998 18.5732C7.32969 18.5732 7.01344 18.563 5.95914 18.5149C4.98415 18.4704 4.45466 18.3075 4.10229 18.1706C3.63551 17.9892 3.30235 17.7725 2.95244 17.4226C2.60253 17.0726 2.38579 16.7395 2.20443 16.2728C2.06748 15.9203 1.90457 15.3908 1.86007 14.4159C1.81196 13.3614 1.8018 13.0451 1.8018 10.375C1.8018 7.70489 1.81196 7.38864 1.86007 6.33418C1.90457 5.35919 2.06748 4.8297 2.20443 4.47729C2.38579 4.01055 2.60253 3.67739 2.95244 3.32748C3.30235 2.97757 3.63551 2.76083 4.10229 2.57943C4.45466 2.44252 4.98415 2.27961 5.9591 2.23511C7.0136 2.187 7.32985 2.17684 9.99998 2.17684ZM9.99998 0.375C7.28412 0.375 6.94362 0.386512 5.87701 0.435178C4.81259 0.483764 4.08569 0.652786 3.44958 0.900007C2.79199 1.15556 2.23432 1.4975 1.67839 2.05343C1.12246 2.60936 0.780524 3.16703 0.524967 3.82462C0.277746 4.46073 0.108725 5.18763 0.060138 6.25205C0.0114719 7.31862 0 7.65916 0 10.375C0 13.0909 0.0114719 13.4314 0.060138 14.498C0.108725 15.5624 0.277746 16.2893 0.524967 16.9254C0.780524 17.583 1.12246 18.1407 1.67839 18.6966C2.23432 19.2525 2.79199 19.5945 3.44958 19.85C4.08569 20.0973 4.81259 20.2663 5.87701 20.3149C6.94362 20.3635 7.28412 20.375 9.99998 20.375C12.7158 20.375 13.0564 20.3635 14.1229 20.3149C15.1874 20.2663 15.9143 20.0973 16.5504 19.85C17.208 19.5945 17.7656 19.2525 18.3216 18.6966C18.8775 18.1407 19.2194 17.583 19.475 16.9254C19.7222 16.2893 19.8912 15.5624 19.9398 14.498C19.9885 13.4314 20 13.0909 20 10.375C20 7.65916 19.9885 7.31862 19.9398 6.25205C19.8912 5.18763 19.7222 4.46073 19.475 3.82462C19.2194 3.16703 18.8775 2.60936 18.3216 2.05343C17.7656 1.4975 17.208 1.15556 16.5504 0.900007C15.9143 0.652786 15.1874 0.483764 14.1229 0.435178C13.0564 0.386512 12.7158 0.375 9.99998 0.375ZM9.99998 5.23987C7.16393 5.23987 4.86483 7.53897 4.86483 10.375C4.86483 13.2111 7.16393 15.5102 9.99998 15.5102C12.836 15.5102 15.1351 13.2111 15.1351 10.375C15.1351 7.53897 12.836 5.23987 9.99998 5.23987ZM9.99998 13.7084C8.15904 13.7084 6.66663 12.216 6.66663 10.375C6.66663 8.53408 8.15904 7.04167 9.99998 7.04167C11.8409 7.04167 13.3333 8.53408 13.3333 10.375C13.3333 12.216 11.8409 13.7084 9.99998 13.7084ZM16.538 5.03699C16.538 5.69974 16.0008 6.23701 15.338 6.23701C14.6753 6.23701 14.138 5.69974 14.138 5.03699C14.138 4.37424 14.6753 3.837 15.338 3.837C16.0008 3.837 16.538 4.37424 16.538 5.03699Z" fill="white"/>
    </g>
    <defs>
        <clipPath id="clip0_3851_6590">
            <rect width="20" height="20" fill="white" transform="translate(0 0.375)"/>
        </clipPath>
    </defs>
</svg>
