<svg width="40" height="40" viewBox="0 0 40 40" fill="none" xmlns="http://www.w3.org/2000/svg">
    <mask id="mask0_3851_6585" style="mask-type:alpha" maskUnits="userSpaceOnUse" x="5" y="5" width="30" height="30">
        <path fill-rule="evenodd" clip-rule="evenodd" d="M26.6666 17.3333C26.6666 22.488 22.4879 26.6667 17.3333 26.6667C12.1786 26.6667 7.99992 22.488 7.99992 17.3333C7.99992 12.1787 12.1786 8.00001 17.3333 8.00001C22.4879 8.00001 26.6666 12.1787 26.6666 17.3333ZM24.8235 26.7092C22.7706 28.3514 20.1666 29.3333 17.3333 29.3333C10.7058 29.3333 5.33325 23.9608 5.33325 17.3333C5.33325 10.7059 10.7058 5.33334 17.3333 5.33334C23.9607 5.33334 29.3333 10.7059 29.3333 17.3333C29.3333 20.1667 28.3513 22.7707 26.7091 24.8236L34.2761 32.3905C34.7968 32.9112 34.7968 33.7555 34.2761 34.2762C33.7554 34.7969 32.9111 34.7969 32.3904 34.2762L24.8235 26.7092Z" fill="#0891B2"/>
    </mask>
    <g mask="url(#mask0_3851_6585)">
        <rect width="40" height="40" fill="white"/>
    </g>
</svg>
