<svg width="20" height="16" viewBox="0 0 20 16" fill="none" xmlns="http://www.w3.org/2000/svg">
    <g clip-path="url(#clip0_3851_6597)">
        <path d="M20 2.2246C19.2642 2.53838 18.4733 2.75035 17.6434 2.84572C18.4905 2.35755 19.1412 1.58455 19.4475 0.663401C18.6546 1.11551 17.7765 1.44371 16.8418 1.6206C16.0934 0.853935 15.027 0.375 13.8468 0.375C11.5808 0.375 9.74348 2.14106 9.74348 4.31944C9.74348 4.6286 9.77979 4.92969 9.84978 5.21838C6.43958 5.0539 3.41617 3.48346 1.39237 1.09696C1.03917 1.67953 0.836767 2.35707 0.836767 3.08C0.836767 4.44855 1.56117 5.65588 2.66217 6.36323C1.98957 6.34275 1.35687 6.16529 0.803667 5.86987C0.803201 5.88631 0.803201 5.90285 0.803201 5.91948C0.803201 7.83061 2.2176 9.42478 4.09471 9.78739C3.75041 9.87757 3.38791 9.92573 3.0137 9.92573C2.7493 9.92573 2.49231 9.90093 2.24171 9.85498C2.76391 11.422 4.27921 12.5625 6.07481 12.5942C4.67051 13.6522 2.90131 14.2829 0.978802 14.2829C0.647601 14.2829 0.321001 14.2641 0 14.2277C1.8159 15.347 3.97271 16 6.28991 16C13.8372 16 17.9645 9.98947 17.9645 4.77674C17.9645 4.60572 17.9605 4.43566 17.9526 4.26637C18.7542 3.71034 19.4499 3.01568 20 2.2246Z" fill="white"/>
    </g>
    <defs>
        <clipPath id="clip0_3851_6597">
            <rect width="20" height="15.625" fill="white" transform="translate(0 0.375)"/>
        </clipPath>
    </defs>
</svg>
